  oss-security - libav: NULL pointer dereference in ff_put_pixels8_xy2_mmx (rnd_template.c)            Products  Openwall GNU/*/Linux   server OS Linux Kernel Runtime Guard John the Ripper   password cracker  Free & Open Source for any platform in the cloud Pro for Linux Pro for macOS  Wordlists   for password cracking passwdqc   policy enforcement  Free & Open Source for Unix Pro for Windows (Active Directory)  yescrypt   KDF & password hashing yespower   Proof-of-Work (PoW) crypt_blowfish   password hashing phpass   ditto in PHP tcb   better password shadowing Pluggable Authentication Modules scanlogd   port scan detector popa3d   tiny POP3 daemon blists   web interface to mailing lists msulogin   single user mode login php_mt_seed   mt_rand() cracker  Services Publications  Articles Presentations  Resources  Mailing lists Community wiki Source code repositories (GitHub) Source code repositories (CVSweb) File archive & mirrors How to verify digital signatures OVE IDs  What's new         Follow @Openwall on Twitter for new release announcements and other news   [<prev] [next>] [thread-next>] [day] [month] [year] [list]  Date: Tue, 20 Sep From: Agostino Sarubbo <ago@...too.org> To: oss-security@...ts.openwall.com Cc: cve-assign <cve-assign@...re.org> Subject: libav: NULL pointer dereference in ff_put_pixels8_xy2_mmx (rnd_template.c)  If it is suitable for a CVE please assign one.  Thanks.  Description: Libav is an open source set of tools for audio and video processing.  A fuzzing with an mp3 file as input discovered a null pointer access in  ff_put_pixels8_xy2_mmx.  The complete ASan output:  # avconv -i $FILE -f null - avconv version Copyright (c) the Libav developers   built on Aug 16 with clang version  @ Format detected only with low score of 25,  misdetection possible! @ warning: first frame is no keyframe @ cbpc damaged at 2 0 @ Error at MB: 2 @ concealing DC, AC, MV errors @ Estimating duration from bitrate, this may be  inaccurate Input #0, from '70.crashes':   Duration: N/A, bitrate: N/A     Stream #0.0: Video: [PAR DAR 4:3], 25 fps,  25 tbn, tbc Output #0, null, to 'pipe:':   Metadata:     encoder         :     Stream #0.0: Video: rawvideo, [PAR DAR 4:3],  kb/s, 25 tbn, 25 tbc     Metadata:       encoder         : rawvideo Stream mapping:   Stream #0:0 -> #0:0 (native) -> rawvideo (native)) Press ctrl-c to stop encoding @ warning: first frame is no keyframe @ cbpc damaged at 2 0 @ Error at MB: 2 @ concealing DC, AC, MV errors @ warning: first frame is no keyframe @ cbpc damaged at 0 0 @ Error at MB: 0 @ concealing 99 DC, 99 AC, 99 MV errors Input stream #0:0 frame changed from to  @ warning: first frame is no keyframe ASAN:DEADLYSIGNAL ================================================================= AddressSanitizer: SEGV on unknown address (pc  bp sp T0)     #0 in ff_put_pixels8_xy2_mmx /var/tmp/portage/media-     #1 in hpel_motion /var/tmp/portage/media-     #2 in apply_8x8 /var/tmp/portage/media-     #3 in mpv_motion_internal /var/tmp/portage/media-     #4 in ff_mpv_motion /var/tmp/portage/media-     #5 in mpv_decode_mb_internal /var/tmp/portage/media-     #6 in ff_mpv_decode_mb /var/tmp/portage/media-     #7 in decode_slice /var/tmp/portage/media-     #8 in /var/tmp/portage/media-     #9 in avcodec_decode_video2 /var/tmp/portage/media-     #10 in decode_video /var/tmp/portage/media-     #11 in process_input_packet /var/tmp/portage/media-     #12 in process_input /var/tmp/portage/media-     #13 in transcode /var/tmp/portage/media-     #14 in main /var/tmp/portage/media-     #15 in __libc_start_main /var/tmp/portage/sys-     #16 in _init  AddressSanitizer can not provide additional info. SUMMARY: AddressSanitizer: SEGV /var/tmp/portage/media- in  ff_put_pixels8_xy2_mmx  Affected version:  Fixed version: N/A  Commit fix: N/A  Credit: This bug was discovered by Agostino Sarubbo of Gentoo.  CVE: N/A  Timeline: bug discovered bug reported to upstream blog post about the issue  Note: This bug was found with American Fuzzy Lop.  Permalink:  -- Agostino  Powered by blists - more mailing lists  Please check out the  Open Source Software Security Wiki, which is counterpart to this mailing list.  Confused about mailing lists and their use? Read about mailing lists on Wikipedia and check out these guidelines on proper formatting of your messages.      